#!OML:ASF H:\Dans Jumps\Project 1\Capture day 1\Session 1\subject.ASF
:FULLY-SPECIFIED
:DEGREES
465
root 0.724124 15.8319 -16.4759 19.7138 -1.47842 -1.53253
lowerback 18.2678 0.136797 -0.291559
upperback 9.84474 0.156429 2.03801
thorax 0.316244 0.00233831 2.2873
lowerneck -14.8934 0.865098 -0.677939
upperneck 12.5387 1.5635 -1.60576
head 6.26033 0.588027 -0.252454
rclavicle 1.98785e-015 -1.39149e-014
rhumerus -19.8771 1.43612 -83.3229
rradius 40.2107
rwrist 20.2062
rhand -19.811 -27.3365
rfingers 7.12502
rthumb 6.52231 -57.2161
lclavicle 1.98785e-015 -1.39149e-014
lhumerus -20.6868 -11.9672 89.2132
lradius 27.8456
lwrist 18.7932
lhand -28.1857 -3.7218
lfingers 7.12502
lthumb -1.56528 26.2522
rfemur -59.5148 -3.01224 21.1848
rtibia 60.3661
rfoot -19.1713 -6.33475
rtoes 4.56346
lfemur -59.3185 6.55368 -21.7198
ltibia 59.3741
lfoot -17.123 9.27159
ltoes 2.61897
466
root 0.720356 15.8008 -16.4894 19.8719 -1.43953 -1.53992
lowerback 18.4161 0.145061 -0.283612
upperback 9.87889 0.169103 2.04504
thorax 0.276791 0.00866589 2.28868
lowerneck -14.9098 0.855067 -0.666774
upperneck 12.2765 1.54309 -1.60645
head 6.17936 0.581334 -0.256797
rclavicle -2.78299e-015 -7.15625e-015
rhumerus -20.0826 1.32918 -83.2974
rradius 40.066
rwrist 20.1379
rhand -19.6616 -27.4895
rfingers 7.12502
rthumb 6.66648 -57.3646
lclavicle -2.78299e-015 -7.15625e-015
lhumerus -20.9746 -12.0237 89.3465
lradius 27.6722
lwrist 18.8086
lhand -28.2177 -3.80684
lfingers 7.12502
lthumb -1.5962 26.1669
rfemur -59.9982 -3.03001 21.2324
rtibia 60.7922
rfoot -19.271 -6.38191
rtoes 4.48839
lfemur -59.805 6.45268 -21.6852
ltibia 59.8088
lfoot -17.2023 9.39404
ltoes 2.5522
467
root 0.716286 15.7707 -16.5023 20.0273 -1.40205 -1.54905
lowerback 18.5612 0.154877 -0.276221
upperback 9.90996 0.183735 2.05218
thorax 0.235692 0.0159693 2.29009
lowerneck -14.9218 0.84268 -0.657394
upperneck 12.0269 1.51953 -1.60347
head 6.10177 0.573186 -0.259957
rclavicle -6.95746e-015 7.55382e-015
rhumerus -20.2825 1.20893 -83.2689
rradius 39.8888
rwrist 20.1234
rhand -19.5771 -27.5794
rfingers 7.12502
rthumb 6.7481 -57.4519
lclavicle -6.95746e-015 7.55382e-015
lhumerus -21.2544 -12.0761 89.4795
lradius 27.489
lwrist 18.7928
lhand -28.2329 -3.81571
lfingers 7.12502
lthumb -1.61083 26.158
rfemur -60.4675 -3.04225 21.2805
rtibia 61.205
rfoot -19.3738 -6.42824
rtoes 4.4304
lfemur -60.2789 6.36057 -21.6494
ltibia 60.2296
lfoot -17.2818 9.50781
ltoes 2.48792
468
root 0.711962 15.7411 -16.5144 20.1801 -1.36917 -1.5591
lowerback 18.7017 0.168147 -0.27283
upperback 9.93962 0.202188 2.05985
thorax 0.195383 0.0249948 2.29358
lowerneck -14.9278 0.828401 -0.649162
upperneck 11.7829 1.49351 -1.59892
head 6.02498 0.563845 -0.262659
rclavicle -1.39149e-015 5.96354e-016
rhumerus -20.4726 1.0845 -83.2389
rradius 39.6876
rwrist 20.1481
rhand -19.53 -27.6465
rfingers 7.12502
rthumb 6.79356 -57.5175
lclavicle -1.39149e-015 5.96354e-016
lhumerus -21.519 -12.1242 89.6125
lradius 27.2906
lwrist 18.7518
lhand -28.2308 -3.80635
lfingers 7.12502
lthumb -1.60883 26.1673
rfemur -60.925 -3.05137 21.3299
rtibia 61.6062
rfoot -19.4803 -6.47179
rtoes 4.36985
lfemur -60.7408 6.27972 -21.6143
ltibia 60.6382
lfoot -17.3651 9.61241
ltoes 2.44271
469
root 0.707398 15.712 -16.5258 20.3311 -1.34191 -1.57145
lowerback 18.8363 0.184987 -0.273211
upperback 9.9686 0.224595 2.06825
thorax 0.157222 0.0357935 2.29919
lowerneck -14.9321 0.811249 -0.641578
upperneck 11.5466 1.46387 -1.59402
head 5.95043 0.552636 -0.265457
rclavicle 3.77691e-015 -5.96354e-016
rhumerus -20.6499 0.963996 -83.2098
rradius 39.4765
rwrist 20.1749
rhand -19.4736 -27.7416
rfingers 7.12502
rthumb 6.84794 -57.6109
lclavicle 3.77691e-015 -5.96354e-016
lhumerus -21.767 -12.1671 89.7437
lradius 27.081
lwrist 18.6908
lhand -28.2024 -3.7518
lfingers 7.12502
lthumb -1.58144 26.2221
rfemur -61.3709 -3.05475 21.3807
rtibia 61.9956
rfoot -19.5915 -6.5119
rtoes 4.31069
lfemur -61.1917 6.2127 -21.5796
ltibia 61.035
lfoot -17.4525 9.70688
ltoes 2.4197
470
root 0.702768 15.6839 -16.5363 20.4787 -1.32071 -1.58394
lowerback 18.9667 0.204517 -0.277593
upperback 9.99699 0.249766 2.07676
thorax 0.12054 0.0477872 2.30661
lowerneck -14.9353 0.794583 -0.632133
upperneck 11.3176 1.43536 -1.59384
head 5.87822 0.541562 -0.269918
rclavicle 7.95139e-016 5.36719e-015
rhumerus -20.8128 0.846579 -83.1813
rradius 39.2507
rwrist 20.2197
rhand -19.426 -27.8387
rfingers 7.12502
rthumb 6.89394 -57.7065
lclavicle 7.95139e-016 5.36719e-015
lhumerus -22.0007 -12.2036 89.8738
lradius 26.8657
lwrist 18.61
lhand -28.141 -3.68332
lfingers 7.12502
lthumb -1.52214 26.291
rfemur -61.802 -3.0553 21.4307
rtibia 62.3732
rfoot -19.7096 -6.55074
rtoes 4.23517
lfemur -61.6275 6.15912 -21.5486
ltibia 61.42
lfoot -17.5481 9.79558
ltoes 2.4042
471
root 0.698025 15.6566 -16.546 20.6238 -1.30424 -1.59503
lowerback 19.0931 0.226366 -0.285742
upperback 10.0244 0.27724 2.0843
thorax 0.084856 0.0607993 2.31463
lowerneck -14.934 0.777562 -0.621056
upperneck 11.0919 1.40651 -1.59681
head 5.80637 0.530098 -0.275651
rclavicle 1.78906e-015 2.34566e-014
rhumerus -20.9643 0.727628 -83.1525
rradius 39.0234
rwrist 20.2556
rhand -19.35 -27.9369
rfingers 7.12502
rthumb 6.96728 -57.8023
lclavicle 1.78906e-015 2.34566e-014
lhumerus -22.2207 -12.233 90.0007
lradius 26.6467
lwrist 18.5038
lhand -28.0484 -3.59342
lfingers 7.12502
lthumb -1.43269 26.3815
rfemur -62.2193 -3.05394 21.4787
rtibia 62.7387
rfoot -19.8336 -6.58973
rtoes 4.13699
lfemur -62.0487 6.11636 -21.5226
ltibia 61.7924
lfoot -17.6515 9.88329
ltoes 2.379
472
root 0.693129 15.63 -16.5549 20.7638 -1.29099 -1.60354
lowerback 19.2191 0.249128 -0.297781
upperback 10.0512 0.305204 2.09081
thorax 0.0487287 0.0739375 2.32361
lowerneck -14.928 0.761829 -0.609445
upperneck 10.8702 1.37988 -1.60368
head 5.73518 0.519372 -0.282478
rclavicle 5.56597e-015 -3.37934e-015
rhumerus -21.1088 0.607826 -83.124
rradius 38.7962
rwrist 20.3021
rhand -19.2757 -28.021
rfingers 7.12502
rthumb 7.03899 -57.8839
lclavicle 5.56597e-015 -3.37934e-015
lhumerus -22.429 -12.2609 90.1243
lradius 26.4247
lwrist 18.3706
lhand -27.9374 -3.49662
lfingers 7.12502
lthumb -1.32546 26.479
rfemur -62.6203 -3.04906 21.5224
rtibia 63.0925
rfoot -19.9616 -6.63208
rtoes 4.01832
lfemur -62.452 6.08074 -21.5005
ltibia 62.1518
lfoot -17.7625 9.98085
ltoes 2.31865
473
root 0.688074 15.6047 -16.563 20.9015 -1.28108 -1.60565
lowerback 19.3414 0.27287 -0.316249
upperback 10.0757 0.333304 2.09482
thorax 0.0120262 0.0869997 2.33347
lowerneck -14.9101 0.74745 -0.596689
upperneck 10.6492 1.35505 -1.613
head 5.66237 0.5094 -0.290107
rclavicle 9.14409e-015 9.93923e-015
rhumerus -21.2496 0.481334 -83.096
rradius 38.5718
rwrist 20.3543
rhand -19.1887 -28.0834
rfingers 7.12502
rthumb 7.12296 -57.9435
lclavicle 9.14409e-015 9.93923e-015
lhumerus -22.6293 -12.2844 90.2436
lradius 26.2072
lwrist 18.2114
lhand -27.816 -3.40372
lfingers 7.12502
lthumb -1.20821 26.5726
rfemur -63.0071 -3.04333 21.5582
rtibia 63.4331
rfoot -20.0963 -6.67646
rtoes 3.88897
lfemur -62.8385 6.0501 -21.4871
ltibia 62.4957
lfoot -17.8804 10.0969
ltoes 2.19126
474
root 0.682886 15.5805 -16.5702 21.0358 -1.27183 -1.60035
lowerback 19.461 0.296034 -0.339539
upperback 10.0994 0.359776 2.09631
thorax -0.0241 0.099162 2.34362
lowerneck -14.894 0.734083 -0.584499
upperneck 10.4388 1.33213 -1.6239
head 5.59329 0.500073 -0.297915
rclavicle -1.33186e-014 -1.21259e-014
rhumerus -21.3818 0.338256 -83.0683
rradius 38.3456
rwrist 20.4155
rhand -19.1104 -28.1054
rfingers 7.12502
rthumb 7.19855 -57.9629
lclavicle -1.33186e-014 -1.21259e-014
lhumerus -22.8154 -12.3067 90.3579
lradius 25.9884
lwrist 18.0323
lhand -27.6979 -3.33273
lfingers 7.12502
lthumb -1.09411 26.6442
rfemur -63.3791 -3.04233 21.5873
rtibia 63.7612
rfoot -20.2324 -6.72761
rtoes 3.71122
lfemur -63.2071 6.0214 -21.4826
ltibia 62.8243
lfoot -18.0099 10.2295
ltoes 1.99439
475
root 0.677543 15.5575 -16.5765 21.1672 -1.26662 -1.58834
lowerback 19.5752 0.319276 -0.369244
upperback 10.123 0.385125 2.095
thorax -0.057466 0.110598 2.35458
lowerneck -14.8802 0.722692 -0.570946
upperneck 10.2391 1.31217 -1.63752
head 5.52809 0.491897 -0.306484
rclavicle -7.95139e-015 -1.33186e-014
rhumerus -21.5044 0.178041 -83.0403
rradius 38.1087
rwrist 20.5243
rhand -19.0621 -28.0765
rfingers 7.12502
rthumb 7.24523 -57.9324
lclavicle -7.95139e-015 -1.33186e-014
lhumerus -22.9863 -12.3251 90.4662
lradius 25.7723
lwrist 17.8455
lhand -27.5844 -3.27238
lfingers 7.12502
lthumb -0.984552 26.7051
rfemur -63.7358 -3.04281 21.6092
rtibia 64.0751
rfoot -20.3795 -6.77913
rtoes 3.53792
lfemur -63.5577 5.99775 -21.4873
ltibia 63.137
lfoot -18.155 10.3751
ltoes 1.71586
476
root 0.672155 15.5358 -16.5818 21.2943 -1.26099 -1.57053
lowerback 19.6829 0.340406 -0.400881
upperback 10.1478 0.40727 2.09168
thorax -0.085998 0.120406 2.36506
lowerneck -14.8668 0.713262 -0.55903
upperneck 10.0469 1.29544 -1.65216
head 5.46542 0.485065 -0.314785
rclavicle -1.78906e-015 2.74323e-014
rhumerus -21.6131 -0.00883743 -83.0095
rradius 37.8502
rwrist 20.6947
rhand -19.0691 -27.9546
rfingers 7.12502
rthumb 7.23841 -57.8108
lclavicle -1.78906e-015 2.74323e-014
lhumerus -23.1392 -12.3426 90.5692
lradius 25.5575
lwrist 17.6624
lhand -27.4953 -3.26342
lfingers 7.12502
lthumb -0.898493 26.7144
rfemur -64.0749 -3.05188 21.6288
rtibia 64.3742
rfoot -20.5352 -6.83899
rtoes 3.31753
lfemur -63.8885 5.97643 -21.4994
ltibia 63.4335
lfoot -18.3177 10.5267
ltoes 1.36754
477
root 0.666775 15.5152 -16.5859 21.4131 -1.2532 -1.55284
lowerback 19.7876 0.358325 -0.427505
upperback 10.1754 0.425965 2.08766
thorax -0.109827 0.128662 2.37256
lowerneck -14.8569 0.704683 -0.550297
upperneck 9.86294 1.28057 -1.66594
head 5.40595 0.478969 -0.322091
rclavicle 7.55382e-015 -7.15625e-015
rhumerus -21.7099 -0.213993 -82.9764
rradius 37.5817
rwrist 20.9116
rhand -19.119 -27.7793
rfingers 7.12502
rthumb 7.19033 -57.6371
lclavicle 7.55382e-015 -7.15625e-015
lhumerus -23.2732 -12.3584 90.6661
lradius 25.3447
lwrist 17.4898
lhand -27.4208 -3.27604
lfingers 7.12502
lthumb -0.826472 26.7021
rfemur -64.3911 -3.06765 21.6518
rtibia 64.659
rfoot -20.7075 -6.90347
rtoes 3.07826
lfemur -64.1965 5.95945 -21.5123
ltibia 63.7164
lfoot -18.4972 10.6733
ltoes 0.98746
